<svg width="26" height="26" viewBox="0 0 26 26" fill="none" xmlns="http://www.w3.org/2000/svg">
<path d="M13 25.625C11.2812 25.625 9.65104 25.3021 8.10938 24.6562C6.57812 24.0208 5.26562 23.1562 4.17188 22.0625C3.07812 20.9583 2.20833 19.6406 1.5625 18.1094C0.927083 16.5781 0.609375 14.9479 0.609375 13.2188C0.609375 10.9062 1.15104 8.80208 2.23438 6.90625C3.31771 5.01042 4.80729 3.52083 6.70312 2.4375C8.59896 1.35417 10.6979 0.8125 13 0.8125C14.7292 0.8125 16.3594 1.13021 17.8906 1.76562C19.4323 2.40104 20.75 3.27083 21.8438 4.375C22.9375 5.46875 23.8021 6.78646 24.4375 8.32812C25.0729 9.85938 25.3906 11.4896 25.3906 13.2188C25.3906 15.5312 24.849 17.6354 23.7656 19.5312C22.6823 21.4271 21.1927 22.9167 19.2969 24C17.401 25.0833 15.3021 25.625 13 25.625ZM13 23.4375C14.4271 23.4375 15.7708 23.1771 17.0312 22.6562C18.2917 22.125 19.3698 21.4115 20.2656 20.5156C21.1719 19.6094 21.8854 18.526 22.4062 17.2656C22.9271 15.9948 23.1875 14.6458 23.1875 13.2188C23.1875 11.3125 22.7448 9.57812 21.8594 8.01562C20.974 6.45312 19.75 5.22917 18.1875 4.34375C16.6354 3.44792 14.9062 3 13 3C11.5729 3 10.2292 3.26562 8.96875 3.79688C7.70833 4.31771 6.625 5.03125 5.71875 5.9375C4.82292 6.83333 4.11458 7.91667 3.59375 9.1875C3.07292 10.4479 2.8125 11.7917 2.8125 13.2188C2.8125 14.6458 3.07292 15.9896 3.59375 17.25C4.125 18.5104 4.83854 19.5938 5.73438 20.5C6.64062 21.4062 7.72396 22.125 8.98438 22.6562C10.2448 23.1771 11.5833 23.4375 13 23.4375ZM18.9062 11H16.7344C16.5469 10.2604 16.1354 9.67188 15.5 9.23438C14.875 8.78646 14.1302 8.5625 13.2656 8.5625C12.0573 8.5625 11.0938 8.97917 10.375 9.8125C9.66667 10.6458 9.3125 11.7708 9.3125 13.1875C9.3125 14.625 9.66667 15.7656 10.375 16.6094C11.0938 17.4531 12.0573 17.875 13.2656 17.875C14.1823 17.875 14.9427 17.6719 15.5469 17.2656C16.151 16.849 16.5469 16.2656 16.7344 15.5156H18.9062C18.7083 16.8281 18.099 17.875 17.0781 18.6562C16.0677 19.4271 14.8021 19.8125 13.2812 19.8125C11.3958 19.8125 9.89062 19.2135 8.76562 18.0156C7.65104 16.8177 7.09375 15.2083 7.09375 13.1875C7.09375 11.1875 7.65104 9.59375 8.76562 8.40625C9.88021 7.21875 11.3802 6.625 13.2656 6.625C14.7552 6.625 16.0156 7.02604 17.0469 7.82812C18.0781 8.63021 18.6979 9.6875 18.9062 11Z" fill="#1F392C"/>
</svg>
