<svg width="594" height="702" viewBox="0 0 594 702" fill="none" xmlns="http://www.w3.org/2000/svg">
<path d="M6.17371 40.4563C50.8737 11.6563 106.674 -0.743669 159.274 8.75633C184.374 13.2563 209.474 23.1563 227.074 42.1563C243.474 59.8563 253.074 85.2563 246.574 109.256C240.374 132.256 221.974 149.856 204.374 164.756C184.374 181.756 163.674 197.956 143.874 215.356C103.674 250.756 66.1737 289.956 39.6737 336.856C13.5737 383.056 -1.82629 435.656 0.173707 488.956C2.07371 539.956 19.8737 589.356 53.4737 627.956C83.6737 662.656 125.374 687.856 170.474 697.356C219.774 707.756 272.374 700.356 316.874 676.756C340.374 664.256 359.474 646.156 380.574 630.356C401.374 614.756 424.774 604.356 450.874 602.356C499.274 598.656 543.974 622.856 569.074 663.956C571.874 668.556 574.474 673.356 576.874 678.256C579.274 683.256 582.574 688.356 583.974 693.656C585.674 699.756 595.074 697.156 593.474 691.056C591.874 685.356 591.374 679.456 589.274 673.756C587.174 668.156 584.574 662.656 581.674 657.356C575.974 647.356 568.974 638.156 560.974 629.856C544.474 612.856 523.674 600.056 500.874 593.356C476.274 586.156 449.574 586.056 424.774 592.656C398.174 599.756 376.774 615.356 355.874 632.556C335.774 649.156 315.274 664.156 290.974 673.856C267.174 683.356 241.774 688.656 216.074 689.056C167.574 689.756 120.074 672.056 83.3737 640.556C44.7737 607.456 20.5737 561.756 13.3737 511.556C5.67371 457.556 17.7737 402.356 42.3737 354.056C67.3737 304.956 104.574 264.156 145.274 227.556C165.474 209.356 186.674 192.456 207.474 175.056C225.474 160.056 243.374 143.356 252.574 121.356C261.874 98.9563 258.874 73.5563 246.174 52.9563C233.374 32.0563 212.774 17.9563 189.974 9.75633C141.674 -7.14367 85.2737 -0.943666 39.2737 19.5563C27.3737 24.8563 15.9737 31.3563 5.17371 38.7563C4.17371 39.4563 5.07371 41.0563 6.17371 40.4563Z" fill="#FFADF2"/>
</svg>
