<svg width="519" height="702" viewBox="0 0 519 702" fill="none" xmlns="http://www.w3.org/2000/svg">
<path d="M-68.8263 40.4563C-24.1263 11.6563 31.6737 -0.743669 84.2737 8.75633C109.374 13.2563 134.474 23.1563 152.074 42.1563C168.474 59.8563 178.074 85.2563 171.574 109.256C165.374 132.256 146.974 149.856 129.374 164.756C109.374 181.756 88.6737 197.956 68.8737 215.356C28.6737 250.756 -8.82629 289.956 -35.3263 336.856C-61.4263 383.056 -76.8263 435.656 -74.8263 488.956C-72.9263 539.956 -55.1263 589.356 -21.5263 627.956C8.67371 662.656 50.3737 687.856 95.4737 697.356C144.774 707.756 197.374 700.356 241.874 676.756C265.374 664.256 284.474 646.156 305.574 630.356C326.374 614.756 349.774 604.356 375.874 602.356C424.274 598.656 468.974 622.856 494.074 663.956C496.874 668.556 499.474 673.356 501.874 678.256C504.274 683.256 507.574 688.356 508.974 693.656C510.674 699.756 520.074 697.156 518.474 691.056C516.874 685.356 516.374 679.456 514.274 673.756C512.174 668.156 509.574 662.656 506.674 657.356C500.974 647.356 493.974 638.156 485.974 629.856C469.474 612.856 448.674 600.056 425.874 593.356C401.274 586.156 374.574 586.056 349.774 592.656C323.174 599.756 301.774 615.356 280.874 632.556C260.774 649.156 240.274 664.156 215.974 673.856C192.174 683.356 166.774 688.656 141.074 689.056C92.5737 689.756 45.0737 672.056 8.37371 640.556C-30.2263 607.456 -54.4263 561.756 -61.6263 511.556C-69.3263 457.556 -57.2263 402.356 -32.6263 354.056C-7.6263 304.956 29.5737 264.156 70.2737 227.556C90.4737 209.356 111.674 192.456 132.474 175.056C150.474 160.056 168.374 143.356 177.574 121.356C186.874 98.9563 183.874 73.5563 171.174 52.9563C158.374 32.0563 137.774 17.9563 114.974 9.75633C66.6737 -7.14367 10.2737 -0.943666 -35.7263 19.5563C-47.6263 24.8563 -59.0263 31.3563 -69.8263 38.7563C-70.8263 39.4563 -69.9263 41.0563 -68.8263 40.4563Z" fill="#FFADF2"/>
</svg>
