<svg width="624" height="600" viewBox="0 0 624 600" fill="none" xmlns="http://www.w3.org/2000/svg">
<path d="M-25.541 363.647C-62.2949 283.307 -49.3218 188.837 -1.97467 115.829C43.5992 45.4929 139.976 -27.0359 224.139 24.789C262.72 48.5648 281.036 91.2403 284.14 135.064C287.944 188.875 276.11 241.972 273.701 295.545C271.685 338.836 274.243 382.806 282.848 425.302C291.33 467.611 306.808 509.803 334.728 543.243C364.993 579.423 411.207 602.178 458.824 599.302C509.321 596.24 553.876 565.268 592.338 535.05C602.495 527.058 612.392 518.916 621.846 509.94C625.645 506.36 620.64 499.429 616.198 502.523C594.585 517.757 574.674 535.245 552.728 550.056C531.715 564.251 509.074 576.467 484.472 583.279C436.361 596.609 385.455 580.382 350.782 545.237C319.789 513.718 302.876 470.813 293.191 428.387C283.31 385.501 280.556 341.071 282.389 297.096C285.989 207.261 323.431 85.8102 235.223 22.9902C200.764 -1.52392 156.249 -4.82302 117.017 9.12999C73.1628 24.6873 35.693 57.7869 7.73347 94.4143C-43.6196 161.76 -66.2565 253.769 -38.4881 335.272C-35.1331 345.061 -31.1817 354.617 -26.4973 363.904C-26.191 364.773 -25.308 364.244 -25.541 363.647Z" fill="#FFADF2"/>
</svg>
