<svg width="299" height="805" viewBox="0 0 299 805" fill="none" xmlns="http://www.w3.org/2000/svg">
<path d="M43.9472 12.6331C73.2472 4.63314 104.547 0.333138 134.447 8.23314C156.847 14.1331 178.247 26.6331 191.247 46.2331C202.247 62.7331 206.847 83.0331 203.847 102.633C200.447 125.433 187.547 144.233 171.747 160.433C137.947 195.033 93.7472 216.833 58.0472 249.233C20.2472 283.533 -10.0528 337.233 6.9472 389.433C22.1472 436.133 70.2472 462.633 110.547 484.833C144.347 503.333 179.047 520.733 211.147 542.233C241.047 562.333 273.247 588.633 282.747 625.133C294.447 670.533 263.147 713.433 227.347 737.833C181.947 768.733 125.547 783.433 71.4472 788.133C43.5472 790.533 15.3472 790.733 -12.5528 789.033C-40.6528 787.333 -68.5528 785.133 -96.3528 780.133C-109.353 777.733 -122.253 774.933 -135.153 771.933C-142.053 770.333 -144.953 781.133 -138.053 782.533C-110.053 788.033 -81.7528 792.933 -53.5528 797.233C-25.1528 801.533 3.24721 803.933 32.0472 804.033C89.3472 804.233 147.447 793.833 199.647 769.533C246.047 747.933 290.847 710.933 297.747 657.033C302.947 617.033 280.047 582.533 251.247 557.133C221.047 530.333 185.047 511.133 149.747 492.033C130.847 481.833 111.747 471.633 93.2472 460.733C72.1472 448.333 51.3472 434.333 35.5472 415.433C18.2472 394.733 11.5472 368.533 16.1472 342.033C20.8472 315.033 34.8472 291.033 53.3472 271.133C87.1472 234.733 132.847 212.633 169.447 179.533C187.147 163.533 203.247 144.433 211.047 121.533C217.747 101.733 217.647 79.9331 209.747 60.5331C201.647 40.6331 186.547 24.4331 167.847 14.1331C143.047 0.633138 113.447 -2.06686 85.8472 1.33314C71.4472 3.13314 57.3472 6.63314 43.6472 11.4331C42.7472 11.6331 43.1472 12.9331 43.9472 12.6331Z" fill="#FFADF2"/>
</svg>
