<svg width="411" height="31" viewBox="0 0 411 31" fill="none" xmlns="http://www.w3.org/2000/svg">
<path d="M2.34786 30.4873C55.0679 29.9274 107.879 26.0672 160.597 23.8044C212.716 21.507 264.935 19.2153 317.049 17.0177C331.611 16.3566 346.068 15.7895 360.625 15.2283C375.686 14.596 390.913 14.5743 406.015 13.2432C413.266 12.5603 412.261 0.482234 405.05 0.466253C391.837 0.303842 378.55 1.43928 365.391 2.0813C352.132 2.71756 338.973 3.35959 325.714 3.99584C299.297 5.27413 272.873 6.65226 246.432 8.32987C194.561 11.5431 142.583 14.8504 90.7537 19.0678C61.1662 21.4651 31.6017 23.4631 2.13308 27.2696C0.130645 27.254 0.34542 30.4718 2.34786 30.4873Z" fill="#FF60E6"/>
</svg>
