<svg width="120" height="120" viewBox="0 0 120 120" fill="none" xmlns="http://www.w3.org/2000/svg">
<rect width="120" height="120" rx="60" fill="#FFADF2"/>
<path fill-rule="evenodd" clip-rule="evenodd" d="M38.3538 40.6295C43.0782 43.4265 50.5147 54.9788 54.5437 57.4139C59.9988 60.7108 63.729 57.9035 68.4364 54.2512C75.2252 48.9836 81.489 46.3216 84.145 45.7711C88.7984 44.8061 92.3737 48.4974 92.823 52.3036C93.5197 58.2088 91.7026 63.4117 88.9061 68.7248C86.6306 73.0485 70.9411 90.4739 59.5214 91.6567C54.4715 92.1797 51.3445 89.7596 46.3915 85.6023C40.0477 80.278 36.8191 76.6815 32.5311 69.3075C29.8181 64.6413 27.575 57.7942 27.06 52.3717C26.6233 47.7711 28.391 34.7312 38.3538 40.6295Z" fill="#C622AC"/>
<mask id="mask0_64_148" style="mask-type:luminance" maskUnits="userSpaceOnUse" x="27" y="39" width="66" height="53">
<path d="M38.3538 40.6295C43.0782 43.4265 50.5147 54.9788 54.5437 57.4139C59.9988 60.7108 63.729 57.9035 68.4364 54.2512C75.2252 48.9836 81.489 46.3216 84.145 45.7711C88.7984 44.8061 92.3737 48.4974 92.823 52.3036C93.5197 58.2088 91.7026 63.4117 88.9061 68.7248C86.6306 73.0485 70.9411 90.4739 59.5214 91.6567C54.4715 92.1797 51.3445 89.7596 46.3915 85.6023C40.0477 80.278 36.8191 76.6815 32.5311 69.3075C29.8181 64.6413 27.575 57.7942 27.06 52.3717C26.6233 47.7711 28.391 34.7312 38.3538 40.6295Z" fill="white"/>
</mask>
<g mask="url(#mask0_64_148)">
<path fill-rule="evenodd" clip-rule="evenodd" d="M48.9938 92.4836C49.9655 88.6856 50.8057 70.9352 47.4128 64.588C44.8822 59.8545 42.1514 54.9856 40.4974 49.8302C39.9413 48.0964 39.1002 45.711 40.0092 43.9353C41.1534 41.7004 42.8688 44.1565 43.9525 45.4525C47.6317 49.8521 50.9839 56.4809 56.9562 58.1452C62.359 59.6513 65.3553 55.9703 70.7192 53.0263C72.3058 52.1551 77.0185 49.0203 78.922 51.0302C80.9536 53.1742 74.2621 57.4203 72.0896 60.9645C70.6371 63.3345 69.3947 66.0778 68.8446 68.1293C66.4217 77.1637 70.8023 85.2211 72.0472 94.0467" fill="#FF60E6"/>
</g>
<path fill-rule="evenodd" clip-rule="evenodd" d="M48.9528 28.2764C52.2535 28.2764 54.9329 30.9331 54.9329 34.2051C54.9329 37.478 52.2531 40.1343 48.9528 40.1343C45.6516 40.1343 42.9722 37.4776 42.9722 34.2051C42.9718 30.9331 45.6516 28.2764 48.9528 28.2764Z" fill="#C622AC"/>
<path d="M75.9284 44.9595C79.2313 44.9595 81.9089 42.3049 81.9089 39.0303C81.9089 35.7557 79.2313 33.1011 75.9284 33.1011C72.6254 33.1011 69.9478 35.7557 69.9478 39.0303C69.9478 42.3049 72.6254 44.9595 75.9284 44.9595Z" fill="#C622AC"/>
<path d="M61.306 52.6607C64.0666 52.6607 66.3045 50.442 66.3045 47.7051C66.3045 44.9682 64.0666 42.7495 61.306 42.7495C58.5455 42.7495 56.3076 44.9682 56.3076 47.7051C56.3076 50.442 58.5455 52.6607 61.306 52.6607Z" fill="#FF60E6"/>
</svg>
