<svg width="120" height="120" viewBox="0 0 120 120" fill="none" xmlns="http://www.w3.org/2000/svg">
<rect width="120" height="120" rx="60" fill="#FFADF2"/>
<g clip-path="url(#clip0_64_147)">
<path d="M88.9352 53.6804L61.0398 28.8633C60.0141 27.697 58.1912 27.7153 57.1884 28.901L30.6061 53.5067C29.2112 55.1564 30.3781 57.6838 32.5381 57.6924L35.4918 57.7038C36.0141 57.7061 36.4358 58.1307 36.4335 58.653L36.3158 89.0673C36.3106 90.4718 37.4444 91.6147 38.8495 91.6204L80.6426 91.7827C82.0472 91.7878 83.1901 90.6536 83.1958 89.2496L83.3118 59.2998C83.3146 58.521 83.9483 57.8924 84.7272 57.8953L87.0164 57.9044C89.2089 57.9124 90.3838 55.3273 88.9352 53.6804Z" fill="#C622AC"/>
<path d="M72.8992 69.8792L60.0061 82.6724L47.2129 69.7792C43.1786 66.1809 42.8295 60.2255 45.7712 56.7061C49.0649 52.7655 56.0095 52.4478 60.1061 56.9861C63.6055 53.5495 68.7523 53.0284 72.0478 55.2684C76.1815 58.0775 77.2255 65.1107 72.8992 69.8792Z" fill="white"/>
<mask id="mask0_64_147" style="mask-type:luminance" maskUnits="userSpaceOnUse" x="43" y="53" width="33" height="30">
<path d="M72.8992 69.8792L60.0061 82.6724L47.2129 69.7792C43.1786 66.1809 42.8295 60.2255 45.7712 56.7061C49.0649 52.7655 56.0095 52.4478 60.1061 56.9861C63.6055 53.5495 68.7523 53.0284 72.0478 55.2684C76.1815 58.0775 77.2255 65.1107 72.8992 69.8792Z" fill="white"/>
</mask>
<g mask="url(#mask0_64_147)">
<path d="M55.5541 75.7111C55.5381 79.8774 53.8569 83.2488 51.7992 83.2408C49.7415 83.2328 48.0866 79.8488 48.1032 75.6826C48.1192 71.5163 49.8003 68.1448 51.8581 68.1528C53.9152 68.1603 55.5701 71.5443 55.5541 75.7111Z" fill="#FF60E6"/>
<path d="M54.9238 64.0432C54.9175 65.7278 53.5466 67.0878 51.8621 67.0815C50.1775 67.0752 48.8175 65.7043 48.8238 64.0198C48.8301 62.3352 50.2009 60.9746 51.8855 60.9815C53.5701 60.9878 54.9306 62.3586 54.9238 64.0432Z" fill="#FF60E6"/>
<path d="M64.1918 81.8449C64.1758 86.0112 62.4946 89.3826 60.4369 89.3746C58.3792 89.3666 56.7244 85.9826 56.7409 81.8164C56.7569 77.6501 58.4381 74.2786 60.4958 74.2866C62.5535 74.2946 64.2084 77.6786 64.1918 81.8449Z" fill="#FF60E6"/>
<path d="M63.5621 70.1771C63.5558 71.8616 62.1849 73.2222 60.5004 73.2153C58.8158 73.2085 57.4558 71.8376 57.4621 70.1531C57.4684 68.4685 58.8398 67.1079 60.5238 67.1148C62.2084 67.1216 63.5684 68.4925 63.5621 70.1771Z" fill="#FF60E6"/>
<path d="M72.8769 75.778C72.8609 79.9443 71.1798 83.3157 69.1221 83.3077C67.0644 83.2997 65.4095 79.9157 65.4261 75.7495C65.4421 71.5832 67.1232 68.2117 69.1809 68.2197C71.2386 68.2277 72.8935 71.6117 72.8769 75.778Z" fill="#FF60E6"/>
<path d="M72.2472 64.1101C72.2409 65.7947 70.8695 67.1547 69.1849 67.1484C67.5003 67.1421 66.1398 65.7712 66.1466 64.0867C66.1529 62.4021 67.5238 61.0415 69.2083 61.0484C70.8935 61.0547 72.2535 62.4255 72.2472 64.1101Z" fill="#FF60E6"/>
</g>
</g>
<defs>
<clipPath id="clip0_64_147">
<rect width="60" height="64" fill="white" transform="translate(30 28)"/>
</clipPath>
</defs>
</svg>
