<svg width="120" height="120" viewBox="0 0 120 120" fill="none" xmlns="http://www.w3.org/2000/svg">
<rect width="120" height="120" rx="60" fill="#FFADF2"/>
<g clip-path="url(#clip0_64_143)">
<path fill-rule="evenodd" clip-rule="evenodd" d="M60.9411 33C69.0971 33 76.4083 36.615 81.3607 42.3293C77.3074 38.8763 72.0533 36.7907 66.3116 36.7907C56.0878 36.7907 47.4077 43.3985 44.3083 52.5759C42.4838 50.8621 40.0284 49.8112 37.3277 49.8112C36.8375 49.8112 36.355 49.8462 35.8831 49.9133C39.8821 39.9983 49.5938 33 60.9411 33ZM44.3083 67.4432C47.4077 76.6206 56.0878 83.2288 66.3116 83.2288C72.0533 83.2288 77.3074 81.1432 81.3607 77.6903C76.4083 83.4051 69.0971 87.0196 60.9411 87.0196C49.5938 87.0196 39.8821 80.0212 35.8831 70.1058C36.355 70.1728 36.837 70.2079 37.3277 70.2079C40.0284 70.2079 42.4838 69.1569 44.3083 67.4432Z" fill="white"/>
<path d="M38.6238 68.0387C43.0589 67.3226 46.0737 63.1467 45.3576 58.7116C44.6415 54.2765 40.4656 51.2616 36.0305 51.9778C31.5954 52.6939 28.5805 56.8698 29.2967 61.3049C30.0128 65.74 34.1887 68.7548 38.6238 68.0387Z" fill="#C622AC"/>
<path fill-rule="evenodd" clip-rule="evenodd" d="M67.2127 39.1328C60.9087 39.1328 55.2579 41.927 51.4301 46.344C54.563 43.6753 58.624 42.0631 63.0618 42.0631C70.9643 42.0631 77.6731 47.1704 80.0685 54.2642C81.4786 52.9395 83.3767 52.1274 85.4643 52.1274C85.8433 52.1274 86.2156 52.1548 86.5808 52.2061C83.49 44.5423 75.9832 39.1328 67.2127 39.1328ZM80.0685 65.7553C77.6731 72.8491 70.9638 77.9564 63.0618 77.9564C58.624 77.9564 54.563 76.3448 51.4301 73.6755C55.2579 78.0926 60.9092 80.8867 67.2127 80.8867C75.9832 80.8867 83.49 75.4777 86.5808 67.8135C86.2161 67.8653 85.8433 67.8927 85.4643 67.8927C83.3767 67.8922 81.4791 67.08 80.0685 65.7553Z" fill="#FF60E6"/>
<path fill-rule="evenodd" clip-rule="evenodd" d="M85.4644 66.2966C88.9275 66.2966 91.7516 63.4725 91.7516 60.0094C91.7516 56.5463 88.9275 53.7222 85.4644 53.7222C82.0012 53.7222 79.1771 56.5468 79.1771 60.0094C79.1771 63.4725 82.0018 66.2966 85.4644 66.2966Z" fill="#C622AC"/>
<path fill-rule="evenodd" clip-rule="evenodd" d="M64.708 45.394C69.1215 45.394 73.0778 47.3501 75.7577 50.4424C73.5644 48.5737 70.7215 47.4456 67.614 47.4456C62.0815 47.4456 57.3846 51.021 55.7074 55.9876C54.72 55.0601 53.3912 54.4917 51.9299 54.4917C51.6647 54.4917 51.4037 54.511 51.1487 54.5471C53.312 49.1812 58.5676 45.394 64.708 45.394ZM55.7074 64.0318C57.3846 68.9979 62.0815 72.5737 67.614 72.5737C70.721 72.5737 73.5644 71.4456 75.7577 69.5769C73.0778 72.6692 69.1215 74.6253 64.708 74.6253C58.5676 74.6253 53.3125 70.8381 51.1487 65.4728C51.4037 65.5088 51.6647 65.5281 51.9299 65.5281C53.3912 65.5281 54.72 64.9598 55.7074 64.0318Z" fill="#C622AC"/>
<path fill-rule="evenodd" clip-rule="evenodd" d="M51.9299 64.4115C54.3542 64.4115 56.3316 62.4341 56.3316 60.0097C56.3316 57.5853 54.3542 55.6079 51.9299 55.6079C49.5055 55.6079 47.5281 57.5853 47.5281 60.0097C47.5281 62.4341 49.5055 64.4115 51.9299 64.4115Z" fill="#C622AC"/>
</g>
<defs>
<clipPath id="clip0_64_143">
<rect width="64" height="54.3492" fill="white" transform="translate(28 33)"/>
</clipPath>
</defs>
</svg>
