<svg width="120" height="120" viewBox="0 0 120 120" fill="none" xmlns="http://www.w3.org/2000/svg">
<rect width="120" height="120" rx="60" fill="#FFADF2"/>
<g clip-path="url(#clip0_64_142)">
<path fill-rule="evenodd" clip-rule="evenodd" d="M46.6721 44.3532C46.6721 48.5544 48.5341 52.3201 51.4781 54.8709C49.6997 52.7833 48.6252 50.0769 48.6252 47.1193C48.6252 41.8534 52.0286 37.3821 56.7559 35.7859C55.8729 34.8459 55.3316 33.5817 55.3316 32.1899C55.3316 31.9372 55.3501 31.6888 55.3843 31.4458C50.2773 33.5057 46.6721 38.508 46.6721 44.3532ZM64.4137 35.7859C69.141 37.3821 72.5449 41.8534 72.5449 47.1193C72.5449 50.0769 71.4705 52.7833 69.6921 54.8709C72.6361 52.3201 74.498 48.5539 74.498 44.3532C74.498 38.5086 70.8929 33.5057 65.7859 31.4463C65.8201 31.6893 65.8385 31.9377 65.8385 32.1905C65.8374 33.5811 65.2967 34.8459 64.4137 35.7859Z" fill="#C622AC"/>
<path fill-rule="evenodd" clip-rule="evenodd" d="M56.3947 32.1898C56.3947 34.5036 58.2708 36.3797 60.5845 36.3797C62.8983 36.3797 64.7744 34.5036 64.7744 32.1898C64.7744 29.8761 62.8983 28 60.5845 28C58.2708 28 56.3947 29.8761 56.3947 32.1898Z" fill="#C622AC"/>
<path fill-rule="evenodd" clip-rule="evenodd" d="M40.0937 63.839C43.7319 65.9396 47.9245 66.2102 51.6056 64.9362C48.9083 65.4325 46.0273 65.01 43.4662 63.5309C38.9059 60.8982 36.7353 55.7142 37.7165 50.8226C36.4609 51.1176 35.0952 50.9538 33.8906 50.258C33.6715 50.1316 33.4659 49.9922 33.2728 49.8403C32.5021 55.2939 35.0323 60.9167 40.0937 63.839ZM41.5451 44.191C45.2912 40.895 50.8652 40.1834 55.4255 42.8161C57.9871 44.2946 59.7932 46.5785 60.7125 49.1624C59.9749 45.3376 57.6443 41.842 54.0066 39.7413C48.9447 36.819 42.8099 37.4395 38.4725 40.8331C38.7003 40.9248 38.9243 41.0327 39.1429 41.1597C40.3475 41.8555 41.1725 42.9565 41.5451 44.191Z" fill="#FF60E6"/>
<path fill-rule="evenodd" clip-rule="evenodd" d="M34.4216 49.338C36.4256 50.4949 38.9883 49.8082 40.1452 47.8042C41.3021 45.8001 40.6155 43.2374 38.6114 42.0805C36.6073 40.9236 34.0446 41.6103 32.8877 43.6143C31.7309 45.6179 32.4175 48.1806 34.4216 49.338Z" fill="#C622AC"/>
<path fill-rule="evenodd" clip-rule="evenodd" d="M53.6801 79.2796C57.3184 77.179 59.649 73.684 60.386 69.8592C59.4673 72.4436 57.6606 74.727 55.0995 76.2055C50.5387 78.8387 44.9653 78.1266 41.2186 74.8306C40.846 76.065 40.021 77.166 38.8164 77.8619C38.5978 77.9882 38.3733 78.0967 38.146 78.1884C42.4839 81.5809 48.6187 82.2019 53.6801 79.2796ZM37.39 68.199C36.4088 63.3068 38.5794 58.1238 43.1397 55.4906C45.7013 54.0116 48.5818 53.5885 51.2796 54.0853C47.5985 52.8118 43.406 53.0819 39.7683 55.1826C34.7063 58.1049 32.1767 63.7282 32.9463 69.1812C33.1394 69.0299 33.3455 68.8899 33.5641 68.7636C34.7687 68.0677 36.1344 67.9039 37.39 68.199Z" fill="white"/>
<path fill-rule="evenodd" clip-rule="evenodd" d="M38.2854 76.9415C40.2895 75.7841 40.9762 73.2219 39.8193 71.2178C38.6624 69.2138 36.0997 68.5271 34.0956 69.684C32.0915 70.8409 31.4049 73.4036 32.5623 75.4077C33.7187 77.4117 36.2814 78.0984 38.2854 76.9415Z" fill="#C622AC"/>
<path fill-rule="evenodd" clip-rule="evenodd" d="M73.845 75.2336C73.845 71.0329 71.9831 67.2667 69.0391 64.7159C70.818 66.8035 71.8919 69.5099 71.8919 72.4675C71.8919 77.7339 68.488 82.2047 63.7607 83.8014C64.6437 84.7414 65.185 86.0056 65.185 87.3974C65.185 87.6496 65.1665 87.898 65.1323 88.1415C70.2404 86.0805 73.845 81.0782 73.845 75.2336ZM56.104 83.8009C51.3772 82.2042 47.9727 77.7334 47.9727 72.4669C47.9727 69.5094 49.0472 66.8029 50.8256 64.7153C47.8822 67.2661 46.0202 71.0323 46.0202 75.233C46.0202 81.0782 49.6254 86.0805 54.7323 88.1404C54.6982 87.8974 54.6797 87.649 54.6797 87.3963C54.6797 86.0056 55.221 84.7408 56.104 83.8009Z" fill="#C622AC"/>
<path fill-rule="evenodd" clip-rule="evenodd" d="M64.1225 87.3969C64.1225 85.0826 62.2469 83.207 59.9326 83.207C57.6189 83.207 55.7428 85.0831 55.7428 87.3969C55.7428 89.7112 57.6189 91.5867 59.9326 91.5867C62.2469 91.5867 64.1225 89.7106 64.1225 87.3969Z" fill="#C622AC"/>
<path fill-rule="evenodd" clip-rule="evenodd" d="M80.4235 55.7475C76.7858 53.6469 72.5932 53.3768 68.9122 54.6503C71.6094 54.154 74.4905 54.5765 77.0516 56.0556C81.6118 58.6882 83.7824 63.8717 82.8012 68.7639C84.0568 68.4689 85.4225 68.6326 86.6271 69.3285C86.8457 69.4549 87.0518 69.5943 87.2449 69.7461C88.0151 64.2931 85.4854 58.6698 80.4235 55.7475ZM78.9726 75.3955C75.2259 78.691 69.6525 79.4031 65.0917 76.7699C62.5306 75.2914 60.724 73.008 59.8052 70.4236C60.5423 74.2484 62.8734 77.744 66.5111 79.8446C71.5725 82.7669 77.7078 82.1459 82.0452 78.7528C81.8174 78.6611 81.5934 78.5526 81.3748 78.4263C80.1696 77.731 79.3447 76.6299 78.9726 75.3955Z" fill="#FF60E6"/>
<path fill-rule="evenodd" clip-rule="evenodd" d="M86.0962 70.2485C84.0921 69.0916 81.5294 69.7782 80.3725 71.7823C79.2156 73.7864 79.9023 76.3485 81.9063 77.506C83.9104 78.6628 86.4731 77.9767 87.63 75.9721C88.7869 73.9681 88.1002 71.4059 86.0962 70.2485Z" fill="#C622AC"/>
<path fill-rule="evenodd" clip-rule="evenodd" d="M66.837 40.307C63.1993 42.4076 60.8682 45.9032 60.1311 49.7275C61.0499 47.1431 62.8565 44.8597 65.4176 43.3812C69.9784 40.7485 75.5518 41.4601 79.2986 44.7561C79.6706 43.5216 80.4956 42.4206 81.7002 41.7253C81.9188 41.5989 82.1433 41.4905 82.3706 41.3988C78.0337 38.0052 71.899 37.3842 66.837 40.307ZM83.1272 51.3877C84.1083 56.2799 81.9377 61.4628 77.3775 64.096C74.8159 65.5745 71.9353 65.9976 69.2375 65.5013C72.9186 66.7748 77.1112 66.5047 80.7494 64.4041C85.8114 61.4818 88.341 55.8585 87.5708 50.4054C87.3778 50.5568 87.1716 50.6967 86.9531 50.8231C85.7485 51.5189 84.3828 51.6827 83.1272 51.3877Z" fill="white"/>
<path fill-rule="evenodd" clip-rule="evenodd" d="M82.2323 42.645C80.2282 43.8019 79.5416 46.3646 80.6985 48.3686C81.8554 50.3727 84.4181 51.0593 86.4221 49.9019C88.4262 48.745 89.1128 46.1823 87.956 44.1783C86.7985 42.1747 84.2364 41.4881 82.2323 42.645Z" fill="#C622AC"/>
</g>
<defs>
<clipPath id="clip0_64_142">
<rect width="56.9492" height="64" fill="white" transform="translate(32 28)"/>
</clipPath>
</defs>
</svg>
