<svg width="120" height="120" viewBox="0 0 120 120" fill="none" xmlns="http://www.w3.org/2000/svg">
<rect width="120" height="120" rx="60" fill="#FFADF2"/>
<g clip-path="url(#clip0_64_145)">
<path d="M82.3688 69.8094C87.3324 57.5538 81.4211 43.5949 69.1655 38.6313C56.9099 33.6677 42.951 39.5791 37.9874 51.8347C33.0238 64.0903 38.9351 78.0492 51.1907 83.0128C63.4463 87.9764 77.4052 82.065 82.3688 69.8094Z" fill="#C622AC"/>
<path d="M77.2437 70.6412C77.199 68.5019 76.3148 66.2694 74.5125 65.1162C74.0328 64.8091 73.5068 64.5924 72.958 64.4552C73.13 63.8633 73.2683 63.2671 73.3516 62.6698C73.6369 60.6241 73.5504 58.4745 73.6304 56.413C73.7328 53.7706 73.8215 51.1276 73.8798 48.4841C73.9451 45.5264 73.9723 42.5677 73.938 39.6089C73.9223 38.2591 73.8825 36.8614 73.2988 35.6444C72.7151 34.427 71.4323 33.4382 70.0966 33.632C69.0202 33.7883 68.1615 34.6714 67.7292 35.6695C67.2969 36.6675 67.2157 37.7772 67.1401 38.8624C66.9157 42.0918 66.6908 45.3212 66.4665 48.5506C66.3396 50.3752 66.1959 52.2607 65.3405 53.8773C64.6381 53.6018 64.2139 52.692 64.1056 51.9449C63.1092 45.044 62.355 38.2068 61.6102 31.9958C61.5007 31.0849 61.021 30.2295 60.4009 29.5532C59.7807 28.8769 58.8545 28.4321 57.9474 28.5693C56.1576 28.8399 55.868 31.344 55.5854 32.7728C55.1656 34.8985 55.8326 47.754 54.9979 52.0985C54.889 52.6653 54.5149 53.0105 53.9454 53.1041C52.852 53.2844 50.2172 44.9667 48.6529 41.0491C48.152 39.7946 47.6309 38.4916 46.6415 37.5714C46.2119 37.1718 45.6593 36.8461 45.0739 36.8859C43.9212 36.9648 43.374 38.3206 43.1916 39.4613C42.6504 42.847 46.3088 58.3493 47.1887 63.663C47.0298 63.6962 46.8719 63.7343 46.715 63.7789C45.6065 64.0936 44.548 64.7263 43.9403 65.7053C42.9858 67.2435 43.3305 69.2353 43.8619 70.9657C45.3511 75.81 48.03 80.191 50.7519 84.4664C51.2507 85.2499 51.7652 86.047 52.4894 86.6291C53.2402 87.2324 54.1686 87.5662 55.0926 87.8379C57.6866 88.6002 60.4003 88.953 63.1026 88.88C64.3321 88.8468 65.5697 88.7238 66.7431 88.3552C69.1656 87.5934 71.1726 85.8162 72.6264 83.7346C74.0801 81.653 75.0341 79.2676 75.8922 76.8778C76.6159 74.8643 77.2883 72.7805 77.2437 70.6412Z" fill="#FFADF2"/>
<path d="M45.2444 59.2894C44.6498 60.068 44.2283 60.9642 43.8434 61.8654C43.6196 62.3892 43.4056 62.9201 43.276 63.4744C43.0925 64.2617 43.0838 65.079 43.1154 65.887C43.1867 67.6925 43.4688 69.5313 44.3269 71.1212C45.185 72.7111 46.6954 74.0261 48.483 74.2901C50.2183 74.5466 52.02 73.7636 53.1874 72.4547C54.3548 71.1457 54.9233 69.3707 54.9652 67.6174C55.0077 65.8641 54.5557 64.1272 53.8811 62.5079C53.1134 60.6637 51.9966 58.8832 50.3092 57.8138C49.5627 57.3412 48.3948 56.7891 47.5557 57.265C46.6933 57.7534 45.846 58.502 45.2444 59.2894Z" fill="#FFADF2"/>
<path d="M55.8494 60.5205C54.3668 59.5779 52.8651 58.6567 51.2719 57.9156C50.4867 57.5503 49.6618 57.2252 48.7972 57.1844C48.4405 57.1675 48.0534 57.2116 47.7882 57.4506C47.5312 57.6826 47.4441 58.0463 47.3984 58.3893C47.0896 60.698 48.0561 63.0398 49.548 64.8285C51.0399 66.6172 53.017 67.9294 55.0196 69.118C56.0024 69.7012 57.0092 70.2658 58.1042 70.593C59.1992 70.9197 60.4009 70.9949 61.473 70.6001C61.8465 70.4624 62.2026 70.268 62.4966 69.9995C62.8375 69.6881 63.0874 69.2808 63.2213 68.8392C63.7963 66.9455 61.9815 65.2793 60.7352 64.1158C59.2536 62.7317 57.5553 61.6051 55.8494 60.5205Z" fill="#FFADF2"/>
<path d="M79.0835 64.8755C79.1211 63.5028 79.035 62.0871 78.4519 60.844C77.8687 59.601 76.6964 58.5588 75.3265 58.469C73.7251 58.3639 72.3122 59.5356 71.3784 60.8408C69.1862 63.9041 68.6848 67.9366 69.2968 71.6533C69.4705 72.7074 69.7329 73.7627 70.2594 74.6921C70.786 75.6216 71.6038 76.4203 72.6204 76.7481C73.5536 77.0492 74.5626 76.8935 75.4103 76.4247C76.1138 76.0354 76.3675 75.5475 76.703 74.8353C77.6411 72.8447 78.3158 70.732 78.7034 68.5655C78.9223 67.3469 79.0497 66.1126 79.0835 64.8755Z" fill="#FFADF2"/>
<path d="M71.0245 66.6487C70.6188 66.842 70.2034 67.0277 69.7601 67.1034C69.3725 67.1698 68.9744 67.1497 68.584 67.1001C67.9383 67.0185 67.2925 66.8518 66.7349 66.5159C66.1774 66.1799 65.7124 65.6594 65.5354 65.0327C65.3552 64.394 65.4881 63.6943 65.8001 63.1085C66.112 62.5226 66.5901 62.0402 67.1106 61.6291C68.6565 60.4072 70.5736 59.7702 72.4619 59.2072C73.2591 58.9698 74.0802 58.7389 74.9094 58.8021C75.4643 58.8445 76.0621 59.0656 76.3104 59.5633C76.5456 60.0348 76.3975 60.6022 76.2037 61.0922C75.1882 63.6611 73.5095 65.4645 71.0245 66.6487Z" fill="#FFADF2"/>
<path d="M45.1006 41.3143C45.0995 41.5528 44.9057 41.7456 44.6667 41.745C44.4282 41.7439 44.2354 41.5495 44.236 41.3111C44.2365 41.0726 44.4309 40.8798 44.6699 40.8804C44.909 40.8815 45.1017 41.0758 45.1006 41.3143Z" fill="#C622AC"/>
<path d="M58.1145 34.1195C58.1134 34.358 57.9196 34.5507 57.6806 34.5502C57.4421 34.5491 57.2493 34.3553 57.2499 34.1162C57.251 33.8772 57.4448 33.685 57.6838 33.6855C57.9229 33.6866 58.1156 33.8805 58.1145 34.1195Z" fill="#C622AC"/>
<path d="M69.9714 37.6913C69.9703 37.9298 69.7759 38.1225 69.5374 38.122C69.299 38.1209 69.1062 37.927 69.1068 37.688C69.1078 37.4495 69.3017 37.2568 69.5407 37.2573C69.7792 37.2584 69.9719 37.4523 69.9714 37.6913Z" fill="#C622AC"/>
<path d="M46.7695 40.8612C46.7684 41.0997 46.574 41.2924 46.3355 41.2919C46.097 41.2908 45.9043 41.097 45.9048 40.8579C45.9059 40.6194 46.0998 40.4262 46.3388 40.4273C46.5778 40.4283 46.77 40.6227 46.7695 40.8612Z" fill="#C622AC"/>
<path d="M60.3676 34.1278C60.3666 34.3663 60.1722 34.559 59.9337 34.5585C59.6952 34.5574 59.5024 34.3636 59.503 34.1245C59.5041 33.886 59.6979 33.6933 59.937 33.6938C60.176 33.6949 60.3687 33.8888 60.3676 34.1278Z" fill="#C622AC"/>
<path d="M72.0944 37.66C72.0933 37.8985 71.8995 38.0913 71.6604 38.0907C71.4219 38.0896 71.2292 37.8958 71.2297 37.6568C71.2308 37.4183 71.4252 37.2255 71.6637 37.2261C71.9022 37.2272 72.0949 37.4215 72.0944 37.66Z" fill="#C622AC"/>
<path d="M45.0336 42.4402C45.2384 42.7135 45.632 42.8273 45.9506 42.7048C46.2691 42.5823 46.4858 42.2344 46.4542 41.894" stroke="#C622AC" stroke-width="0.6873" stroke-miterlimit="10" stroke-linecap="round" stroke-linejoin="round"/>
<path d="M57.8831 35.4258C58.3568 36.0617 59.4278 36.1162 59.9636 35.5314" stroke="#C622AC" stroke-width="0.6873" stroke-miterlimit="10" stroke-linecap="round" stroke-linejoin="round"/>
<path d="M69.4438 39.115C69.6665 39.5937 70.1952 39.9122 70.7223 39.8839C71.2493 39.8561 71.7421 39.4837 71.9125 38.9844" stroke="#C622AC" stroke-width="0.6873" stroke-miterlimit="10" stroke-linecap="round" stroke-linejoin="round"/>
<path d="M58.4374 63.7034C57.765 64.1853 57.0343 64.7647 56.9787 65.5623C56.9335 66.2092 57.3544 66.8032 57.79 67.3129C58.6193 68.2826 60.4624 69.7691 61.2965 69.3531C61.6336 69.1849 61.7996 68.8495 61.8258 68.4939C61.9118 67.3205 61.4697 66.17 60.7923 65.1894C60.4477 64.6906 60.0279 64.2665 59.6146 63.82C59.2231 63.3964 58.9628 63.3267 58.4374 63.7034Z" fill="#C622AC"/>
<path d="M64.5395 65.0784C65.3029 66.4614 66.7415 65.6974 67.6753 65.2983C68.4348 64.9733 69.244 64.5279 69.5102 63.7454C69.6676 63.2826 69.6017 62.7626 69.4008 62.3167C69.2053 61.8838 68.8312 61.3382 68.4174 61.0845C68.0412 60.8536 67.5756 61.2037 67.2223 61.3883C66.3652 61.8359 65.5643 62.4234 64.9544 63.1792C64.6228 63.5903 63.9107 63.9393 64.5395 65.0784Z" fill="#C622AC"/>
<path d="M55.8108 77.9797C56.793 72.8708 52.8493 67.7422 52.8493 67.7422C52.8493 67.7422 57.2227 71.4061 60.7629 71.1518" stroke="#C622AC" stroke-width="1.1455" stroke-miterlimit="10" stroke-linecap="round" stroke-linejoin="round"/>
<path d="M60.7259 71.185C61.6467 70.6476 62.1781 69.5766 62.2331 68.5121C62.2881 67.4476 61.9167 66.3956 61.3662 65.4831C60.8158 64.5705 60.3159 63.9078 59.515 63.2044C57.0049 61.0013 54.0847 59.2666 50.9495 58.1161C50.1764 57.8324 49.3738 57.5814 48.5505 57.5895C47.7272 57.5983 45.4796 57.669 43.3691 63.133" stroke="#C622AC" stroke-width="1.1455" stroke-miterlimit="10" stroke-linecap="round" stroke-linejoin="round"/>
<path d="M64.7317 63.2158C63.2213 68.8388 69.9861 66.6434 71.5417 65.9176C73.0979 65.1918 74.0807 64.4752 74.0807 64.4752" stroke="#C622AC" stroke-width="1.1455" stroke-miterlimit="10" stroke-linecap="round" stroke-linejoin="round"/>
<path d="M64.7318 63.2161C66.9222 61.5276 69.4095 60.2257 72.0454 59.3878C73.8738 58.8062 76.0643 58.5122 77.5486 59.7281C79.0307 60.9423 79.1755 63.1344 79.0394 65.0456C78.5744 71.5953 76.2156 77.9375 72.7156 83.493" stroke="#C622AC" stroke-width="1.1455" stroke-miterlimit="10" stroke-linecap="round" stroke-linejoin="round"/>
<path d="M72.383 68.4835C72.438 68.8081 72.7369 65.8874 74.0812 64.4761" stroke="#C622AC" stroke-width="1.1455" stroke-miterlimit="10" stroke-linecap="round" stroke-linejoin="round"/>
<path d="M44.8392 37.008C45.8144 36.9841 46.7232 37.5716 47.3292 38.3355C47.9352 39.0994 48.2902 40.0272 48.636 40.9393C49.9956 44.5242 51.3547 48.1092 52.7142 51.6935C52.87 52.1036 53.0388 52.5332 53.3774 52.8125C53.7161 53.0913 54.2808 53.1479 54.5639 52.8125" stroke="#C622AC" stroke-width="1.1455" stroke-miterlimit="10" stroke-linecap="round" stroke-linejoin="round"/>
<path d="M57.9185 28.7124C59.521 28.9095 60.819 30.2005 61.4811 31.6734C62.1427 33.1457 62.281 34.7917 62.4106 36.4012C62.7329 40.4125 63.0553 44.4237 63.3781 48.435C63.5257 50.2678 63.8023 52.6532 65.3002 53.7188" stroke="#C622AC" stroke-width="1.1455" stroke-miterlimit="10" stroke-linecap="round" stroke-linejoin="round"/>
<path d="M67.3235 37.4081C67.3235 37.4081 67.6796 35.559 68.2829 34.7287C68.8862 33.8983 69.9382 33.3571 70.9493 33.534C71.9033 33.7012 72.6694 34.4635 73.0848 35.3379C73.5008 36.2124 73.6206 37.1947 73.7126 38.1584C74.3736 45.086 73.8792 52.0658 73.3843 59.007" stroke="#C622AC" stroke-width="1.1455" stroke-miterlimit="10" stroke-linecap="round" stroke-linejoin="round"/>
<path d="M66.0706 52.4538C66.4137 50.9342 66.4371 48.1943 66.5983 46.6447C66.5983 46.6447 67.1008 41.0734 67.1074 39.3218" stroke="#C622AC" stroke-width="1.1455" stroke-miterlimit="10" stroke-linecap="round" stroke-linejoin="round"/>
<path d="M55.1204 51.4655C55.2418 47.801 55.3637 44.1366 55.4852 40.4722" stroke="#C622AC" stroke-width="1.1455" stroke-miterlimit="10" stroke-linecap="round" stroke-linejoin="round"/>
<path d="M56.5023 29.6187C54.6488 30.9979 55.6071 36.7629 55.3632 38.4857" stroke="#C622AC" stroke-width="1.1455" stroke-miterlimit="10" stroke-linecap="round" stroke-linejoin="round"/>
<path d="M46.207 57.1219C45.1801 52.0455 44.1526 46.9692 43.1257 41.8924C42.8633 40.5965 42.6765 38.7338 43.6381 37.8267" stroke="#C622AC" stroke-width="1.1455" stroke-miterlimit="10" stroke-linecap="round" stroke-linejoin="round"/>
<path d="M53.2696 61.5345C53.4139 60.8664 53.8697 60.2729 54.4779 59.9614" stroke="#C622AC" stroke-width="1.1455" stroke-miterlimit="10" stroke-linecap="round" stroke-linejoin="round"/>
<path d="M54.2366 61.742C54.4501 61.4953 54.663 61.2481 54.8764 61.0015" stroke="#C622AC" stroke-width="1.1455" stroke-miterlimit="10" stroke-linecap="round" stroke-linejoin="round"/>
<path d="M71.6697 60.5508C71.7753 60.6575 71.8809 60.7637 71.9871 60.8704" stroke="#C622AC" stroke-width="1.1455" stroke-miterlimit="10" stroke-linecap="round" stroke-linejoin="round"/>
<path d="M72.9449 60.2368C73.191 60.5918 73.4376 60.9463 73.6838 61.3013" stroke="#C622AC" stroke-width="1.1455" stroke-miterlimit="10" stroke-linecap="round" stroke-linejoin="round"/>
<path d="M57.2825 71.0381C60.7248 72.6863 63.3656 75.9233 64.2885 79.6269" stroke="#C622AC" stroke-width="1.1455" stroke-miterlimit="10" stroke-linecap="round" stroke-linejoin="round"/>
<path d="M62.3006 71.7206C64.2232 69.6619 67.0399 68.4689 69.8565 68.5207" stroke="#C622AC" stroke-width="1.1455" stroke-miterlimit="10" stroke-linecap="round" stroke-linejoin="round"/>
<path d="M58.0791 42.9009C58.4929 42.9025 58.9062 42.9041 59.32 42.9058" stroke="#C622AC" stroke-width="1.1455" stroke-miterlimit="10" stroke-linecap="round" stroke-linejoin="round"/>
<path d="M69.9502 44.542C70.364 44.5436 70.7772 44.5453 71.1911 44.5469" stroke="#C622AC" stroke-width="1.1455" stroke-miterlimit="10" stroke-linecap="round" stroke-linejoin="round"/>
<path d="M69.575 49.8589C70.1059 50.038 70.6373 50.2177 71.1682 50.3968" stroke="#C622AC" stroke-width="1.1455" stroke-miterlimit="10" stroke-linecap="round" stroke-linejoin="round"/>
<path d="M58.2305 49.6372C58.7031 49.6388 59.1757 49.641 59.6489 49.6426" stroke="#C622AC" stroke-width="1.1455" stroke-miterlimit="10" stroke-linecap="round" stroke-linejoin="round"/>
<path d="M47.4142 52.9869C47.8285 52.8116 48.2429 52.6363 48.6572 52.4609" stroke="#C622AC" stroke-width="1.1455" stroke-miterlimit="10" stroke-linecap="round" stroke-linejoin="round"/>
<path d="M45.834 46.3987C46.2386 45.9572 46.8332 45.6958 47.4321 45.6958" stroke="#C622AC" stroke-width="1.1455" stroke-miterlimit="10" stroke-linecap="round" stroke-linejoin="round"/>
<path d="M55.3436 57.46C57.0419 60.0599 61.9777 62.6501 65.7325 62.502" stroke="#C622AC" stroke-width="1.1455" stroke-miterlimit="10" stroke-linecap="round" stroke-linejoin="round"/>
</g>
<defs>
<clipPath id="clip0_64_145">
<rect width="62.3562" height="64" fill="white" transform="translate(29 28)"/>
</clipPath>
</defs>
</svg>
