<svg width="120" height="120" viewBox="0 0 120 120" fill="none" xmlns="http://www.w3.org/2000/svg">
<rect width="120" height="120" rx="60" fill="#FFADF2"/>
<path fill-rule="evenodd" clip-rule="evenodd" d="M54.0663 31C55.8335 31 57.2663 32.4328 57.2663 34.2C57.2663 35.9677 55.8335 37.4005 54.0663 37.4005C52.2991 37.4005 50.8658 35.9677 50.8658 34.2C50.8663 32.4328 52.2991 31 54.0663 31Z" fill="#C622AC"/>
<path fill-rule="evenodd" clip-rule="evenodd" d="M59.2405 54.9261C50.656 48.8763 44.5061 38.809 45.5425 31.2798C46.9118 34.9134 49.127 39.8999 55.9318 41.4345C58.2869 37.2789 61.6223 33.0356 66.3206 31.2798C61.5623 37.2085 60.7641 45.3032 59.2405 54.9261Z" fill="white"/>
<path fill-rule="evenodd" clip-rule="evenodd" d="M32.0196 50.3667C32.9032 48.8361 34.8604 48.3117 36.391 49.1953C37.9215 50.0789 38.4454 52.0361 37.5623 53.5667C36.6787 55.0972 34.7215 55.6216 33.191 54.738C31.6604 53.8544 31.136 51.8972 32.0196 50.3667Z" fill="#C622AC"/>
<path fill-rule="evenodd" clip-rule="evenodd" d="M55.327 57.8488C45.796 62.2588 34.0026 62.5505 28 57.8885C31.8316 58.5195 37.2577 59.0945 41.9887 53.9686C39.5676 49.8507 37.5608 44.8409 38.3888 39.894C41.1443 46.9792 47.7552 51.7182 55.327 57.8488Z" fill="#FF60E6"/>
<path fill-rule="evenodd" clip-rule="evenodd" d="M37.7057 78.9553C36.8221 77.4248 37.3465 75.4676 38.877 74.584C40.4076 73.7004 42.3648 74.2248 43.2484 75.7553C44.132 77.2859 43.6076 79.2431 42.0771 80.1267C40.5465 81.0108 38.5893 80.4864 37.7057 78.9553Z" fill="#C622AC"/>
<path fill-rule="evenodd" clip-rule="evenodd" d="M55.839 62.5112C54.8924 72.9705 49.2485 83.3296 42.21 86.1977C44.6723 83.1946 47.8832 78.7831 45.8099 72.1231C41.0332 72.1608 35.6909 71.3938 31.8212 68.2033C39.3345 69.3597 46.7441 66.0039 55.839 62.5112Z" fill="white"/>
<path fill-rule="evenodd" clip-rule="evenodd" d="M65.4385 88.5724C63.6713 88.5724 62.2385 87.1395 62.2385 85.3724C62.2385 83.6047 63.6713 82.1724 65.4385 82.1724C67.2057 82.1724 68.6385 83.6052 68.6385 85.3724C68.6385 87.14 67.2057 88.5724 65.4385 88.5724Z" fill="#C622AC"/>
<path fill-rule="evenodd" clip-rule="evenodd" d="M60.2645 64.6465C68.8489 70.6957 74.9983 80.7631 73.9624 88.2923C72.5931 84.6586 70.3779 79.6721 63.5736 78.1376C61.218 82.2936 57.8826 86.536 53.1843 88.2923C57.9426 82.3636 58.7414 74.2693 60.2645 64.6465Z" fill="#FF60E6"/>
<path fill-rule="evenodd" clip-rule="evenodd" d="M87.4853 69.699C86.6017 71.2295 84.6445 71.7539 83.1139 70.8703C81.5834 69.9867 81.0585 68.029 81.9421 66.499C82.8262 64.9685 84.7834 64.4441 86.3134 65.3276C87.8445 66.2112 88.3689 68.1684 87.4853 69.699Z" fill="#C622AC"/>
<path fill-rule="evenodd" clip-rule="evenodd" d="M64.1779 62.2173C73.7094 57.8077 85.5028 57.5155 91.5049 62.1776C87.6733 61.5465 82.2472 60.9715 77.5166 66.098C79.9377 70.2153 81.9446 75.2256 81.116 80.172C78.361 73.0869 71.7497 68.3479 64.1779 62.2173Z" fill="white"/>
<path fill-rule="evenodd" clip-rule="evenodd" d="M81.7997 40.6167C82.6833 42.1472 82.1589 44.1044 80.6283 44.988C79.0978 45.8716 77.1406 45.3472 76.257 43.8167C75.3734 42.2861 75.8978 40.3289 77.4283 39.4453C78.9584 38.5617 80.9156 39.0861 81.7997 40.6167Z" fill="#C622AC"/>
<path fill-rule="evenodd" clip-rule="evenodd" d="M63.6658 57.0609C64.6124 46.6017 70.2563 36.2426 77.2949 33.375C74.8326 36.378 71.6212 40.7896 73.6955 47.4495C78.4722 47.4113 83.8144 48.1788 87.6842 51.3694C80.1709 50.2129 72.7613 53.5687 63.6658 57.0609Z" fill="#FF60E6"/>
</svg>
