<svg width="120" height="120" viewBox="0 0 120 120" fill="none" xmlns="http://www.w3.org/2000/svg">
<rect width="120" height="120" rx="60" fill="#FFADF2"/>
<g clip-path="url(#clip0_64_140)">
<path fill-rule="evenodd" clip-rule="evenodd" d="M59.9996 28C77.6612 28 92 42.3387 92 60C92 77.6616 77.6612 92 59.9996 92C42.3384 92 28 77.6613 28 60C27.9996 42.3387 42.3384 28 59.9996 28Z" fill="#C622AC"/>
<mask id="mask0_64_140" style="mask-type:luminance" maskUnits="userSpaceOnUse" x="28" y="28" width="64" height="64">
<path d="M59.9996 28C77.6612 28 92 42.3387 92 60C92 77.6616 77.6612 92 59.9996 92C42.3384 92 28 77.6613 28 60C27.9996 42.3387 42.3384 28 59.9996 28Z" fill="white"/>
</mask>
<g mask="url(#mask0_64_140)">
<path fill-rule="evenodd" clip-rule="evenodd" d="M69.9686 54.6367C72.4615 54.6367 74.4859 56.6612 74.4859 59.1544C74.4859 61.6473 72.4615 63.6717 69.9686 63.6717C67.4754 63.6717 65.4509 61.6473 65.4509 59.1544C65.4509 56.6612 67.475 54.6367 69.9686 54.6367Z" fill="white"/>
</g>
<mask id="mask1_64_140" style="mask-type:luminance" maskUnits="userSpaceOnUse" x="28" y="28" width="64" height="64">
<path d="M59.9996 28C77.6612 28 92 42.3387 92 60C92 77.6616 77.6612 92 59.9996 92C42.3384 92 28 77.6613 28 60C27.9996 42.3387 42.3384 28 59.9996 28Z" fill="white"/>
</mask>
<g mask="url(#mask1_64_140)">
<path fill-rule="evenodd" clip-rule="evenodd" d="M50.0765 64.4414C52.1367 64.4414 53.8089 66.114 53.8089 68.1742C53.8089 70.234 52.1367 71.9062 50.0765 71.9062C48.0167 71.9062 46.3445 70.234 46.3445 68.1742C46.3441 66.1144 48.0167 64.4414 50.0765 64.4414Z" fill="white"/>
</g>
<mask id="mask2_64_140" style="mask-type:luminance" maskUnits="userSpaceOnUse" x="28" y="28" width="64" height="64">
<path d="M59.9996 28C77.6612 28 92 42.3387 92 60C92 77.6616 77.6612 92 59.9996 92C42.3384 92 28 77.6613 28 60C27.9996 42.3387 42.3384 28 59.9996 28Z" fill="white"/>
</mask>
<g mask="url(#mask2_64_140)">
</g>
<mask id="mask3_64_140" style="mask-type:luminance" maskUnits="userSpaceOnUse" x="28" y="28" width="64" height="64">
<path d="M59.9996 28C77.6612 28 92 42.3387 92 60C92 77.6616 77.6612 92 59.9996 92C42.3384 92 28 77.6613 28 60C27.9996 42.3387 42.3384 28 59.9996 28Z" fill="white"/>
</mask>
<g mask="url(#mask3_64_140)">
<path fill-rule="evenodd" clip-rule="evenodd" d="M41.8857 90.7501C38.6413 85.1817 36.172 71.2964 35.5988 67.6453C34.8634 62.9619 33.2638 60.1844 35.7649 59.3598C38.447 58.4752 40.4353 65.8392 45.732 71.6592C51.4343 77.9253 59.0299 73.794 60.5282 77.7341C61.2981 79.7582 56.0788 81.5859 53.8969 84.4302C50.3506 89.0535 50.6671 92.0179 50.8504 96.3526" fill="white"/>
<path fill-rule="evenodd" clip-rule="evenodd" d="M70.0918 97.0871C69.5622 94.738 69.9132 92.1312 69.7133 89.7412C69.3953 85.9429 68.2417 81.9662 65.9161 78.8966C64.8721 77.518 63.6443 76.1941 62.1696 75.2718C60.6681 74.333 58.9822 73.7106 57.5867 72.601C56.4591 71.7042 54.9973 70.0285 55.238 68.4434C55.5203 66.5799 57.9417 66.7743 59.2908 66.8932C63.5556 67.2686 67.844 67.8269 72.0342 66.5595C75.9155 65.3855 78.6596 62.4576 81.0841 59.3762C81.4941 58.8552 82.968 56.8708 83.9241 57.3887C85.4758 58.2281 85.2846 61.1866 85.3411 62.6202C85.5732 68.4363 84.8919 74.13 82.9853 79.6532C81.527 83.8788 79.5689 88.4389 76.4361 91.7064" fill="white"/>
</g>
</g>
<defs>
<clipPath id="clip0_64_140">
<rect width="64" height="64" fill="white" transform="translate(28 28)"/>
</clipPath>
</defs>
</svg>
