<svg width="120" height="120" viewBox="0 0 120 120" fill="none" xmlns="http://www.w3.org/2000/svg">
<rect width="120" height="120" rx="60" fill="#FFADF2"/>
<g clip-path="url(#clip0_64_139)">
<path d="M91.1825 55.5622C90.9498 56.687 89.9801 57.424 88.8941 57.424C88.7389 57.424 88.5837 57.424 88.4674 57.3852C87.1874 57.1525 86.3728 55.9113 86.6444 54.6701C88.4286 45.5549 84.4334 38.767 76.2104 36.9052C68.7244 35.2374 61.6262 42.607 61.5486 42.6846C61.1219 43.1501 60.5013 43.4216 59.8419 43.4216C59.2213 43.4216 58.6007 43.1501 58.1353 42.6846C58.0577 42.607 50.9595 35.2374 43.4734 36.9052C35.2892 38.767 31.2941 45.5549 33.0395 54.6701C33.2722 55.9113 32.4577 57.1525 31.2165 57.3852C29.9753 57.618 28.734 56.8034 28.5013 55.5622C27.3765 49.744 28.1522 44.4689 30.751 40.2798C32.768 37.0604 35.7547 34.6555 39.4783 33.2592C40.4092 32.9101 41.4177 32.5998 42.465 32.367C50.0674 30.6604 56.8165 35.3149 59.8419 37.9137C62.8674 35.3149 69.6165 30.6604 77.2189 32.367C80.128 33.0264 82.688 34.1901 84.8213 35.8192C86.4504 37.0604 87.8468 38.5343 88.9328 40.2798C91.5316 44.4301 92.3074 49.7052 91.1825 55.5622Z" fill="#C622AC"/>
<path d="M72.1377 73.7923C72.1377 73.7923 76.6759 67.7414 78.111 66.2286C78.111 66.2286 79.7013 64.4832 80.7486 66.0735L79.1971 70.2238L72.9522 76.5074L69.7716 76.7402L72.1377 73.7923Z" fill="#FF60E6"/>
<path fill-rule="evenodd" clip-rule="evenodd" d="M80.903 65.9181C80.989 65.982 81.0069 66.1035 80.9431 66.1895C79.4757 68.1655 77.0578 70.4846 75.0158 72.3035C73.9931 73.2145 73.0616 74.0027 72.3857 74.5631C72.0478 74.8434 71.7737 75.0668 71.5839 75.2202C71.4891 75.2969 71.4153 75.3561 71.3652 75.3962L71.3081 75.4417L71.2887 75.4571C71.2887 75.4572 71.2884 75.4574 71.168 75.3054C71.0476 75.1533 71.0476 75.1533 71.0476 75.1533L71.0666 75.1382L71.1229 75.0933C71.1725 75.0536 71.2458 74.9948 71.3401 74.9186C71.5287 74.7661 71.8015 74.5437 72.1381 74.2646C72.8114 73.7062 73.7393 72.9211 74.7578 72.0139C76.7982 70.1964 79.1899 67.8998 80.6317 65.9582C80.6955 65.8722 80.817 65.8543 80.903 65.9181ZM71.0159 75.4258C70.9495 75.3418 70.9637 75.2198 71.0476 75.1533L71.168 75.3054L71.2884 75.4574C71.2044 75.5239 71.0824 75.5097 71.0159 75.4258Z" fill="#C622AC"/>
<path d="M47.5074 73.7923C47.5074 73.7923 42.9692 67.7414 41.5341 66.2286C41.5341 66.2286 39.9438 64.4832 38.8965 66.0735L40.448 70.2238L46.7316 76.5462L49.9122 76.7789L47.5074 73.7923Z" fill="#FF60E6"/>
<path d="M80.7874 66.0738C77.9947 69.7587 71.168 75.3053 71.168 75.3053C73.185 72.7841 74.7365 67.3926 71.7886 67.6641C69.9268 67.8193 69.6553 70.4569 63.7595 75.0338C63.7207 75.0726 63.6819 75.0726 63.6819 75.1114C61.4322 76.8957 58.2904 76.8957 56.0407 75.1114C56.0019 75.0726 55.9632 75.0726 55.9632 75.0338C50.0674 70.4957 49.7959 67.8193 47.9341 67.6641C44.9862 67.3926 46.5377 72.7841 48.5547 75.3053C48.5547 75.3053 41.728 69.7199 38.9353 66.0738C36.1425 62.389 31.9922 64.2508 35.1728 68.7114C38.1983 72.9781 46.7316 82.6363 58.1741 87.0581C59.2601 87.4847 60.4625 87.4847 61.5486 87.0581C72.991 82.6363 81.5244 72.9393 84.5498 68.7114C87.7304 64.2508 83.5801 62.389 80.7874 66.0738Z" fill="#FF60E6"/>
<path fill-rule="evenodd" clip-rule="evenodd" d="M38.7809 65.9181C38.8669 65.8543 38.9883 65.8722 39.0522 65.9582C40.4939 67.8998 42.8857 70.1964 44.9261 72.0139C45.9446 72.9211 46.8725 73.7062 47.5457 74.2646C47.8823 74.5437 48.1552 74.7661 48.3438 74.9186C48.4381 74.9948 48.5113 75.0536 48.5609 75.0933L48.6173 75.1382L48.636 75.1531C48.636 75.1531 48.6363 75.1533 48.5159 75.3054C48.3955 75.4574 48.3954 75.4574 48.3954 75.4573L48.3758 75.4417L48.3187 75.3962C48.2686 75.3561 48.1948 75.2969 48.0999 75.2202C47.9102 75.0668 47.6361 74.8434 47.2981 74.5631C46.6223 74.0027 45.6908 73.2145 44.6681 72.3035C42.6261 70.4846 40.2081 68.1655 38.7408 66.1895C38.6769 66.1035 38.6949 65.982 38.7809 65.9181ZM48.6679 75.4258C48.6014 75.5097 48.4793 75.5238 48.3954 75.4573L48.5159 75.3054L48.636 75.1531C48.72 75.2196 48.7344 75.3418 48.6679 75.4258Z" fill="#C622AC"/>
<path d="M69.3062 53.3124C69.0734 53.196 68.8407 53.1184 68.608 53.1184H64.225V48.7354C64.225 47.8821 63.5268 47.2227 62.7122 47.2227H57.088C56.2347 47.2227 55.5753 47.9208 55.5753 48.7354V53.1184H51.1922C50.3389 53.1184 49.6795 53.8166 49.6795 54.6699V60.2942C49.6795 61.1475 50.3777 61.8069 51.1922 61.8069H55.4977V66.1899C55.4977 67.0433 56.1959 67.7027 57.0104 67.7027H62.6347C63.488 67.7027 64.1474 67.0045 64.1474 66.1899V61.8069H68.5304C69.3837 61.8069 70.0431 61.1087 70.0431 60.2942V54.6699C70.1207 54.0881 69.8104 53.5839 69.3062 53.3124Z" fill="white"/>
<path d="M91.1825 55.5623C90.9498 56.6872 89.9801 57.4241 88.8941 57.4241C88.7389 57.4241 88.5837 57.4241 88.4674 57.3853C87.1874 57.1526 86.3728 55.9114 86.6444 54.6702C88.4286 45.555 84.4334 38.7672 76.2104 36.9053C68.7244 35.2375 61.6262 42.6072 61.5486 42.6847C61.5486 42.6847 69.9656 29.8072 84.8213 35.8193C86.4504 37.0605 87.8468 38.5344 88.9328 40.2799C91.5316 44.4302 92.3074 49.7053 91.1825 55.5623Z" fill="#C622AC"/>
<path d="M58.1353 42.6849C58.0577 42.6073 50.9595 35.2376 43.4734 36.9055C35.2892 38.7673 31.2941 45.5552 33.0395 54.6703C33.2722 55.9115 32.4577 57.1527 31.2165 57.3855C29.9753 57.6182 28.734 56.8037 28.5013 55.5624C27.3765 49.7443 28.1522 44.4691 30.751 40.28C32.768 37.0606 35.7547 34.6558 39.4783 33.2594C51.6577 30.6606 58.1353 42.6849 58.1353 42.6849Z" fill="#FF60E6"/>
<path d="M40.3316 43.6157C40.3316 43.6157 46.5377 44.2751 45.4128 50.7527C38.8965 49.7054 40.3316 43.6157 40.3316 43.6157Z" fill="#FF60E6"/>
<path fill-rule="evenodd" clip-rule="evenodd" d="M40.7613 43.9302L45.2219 50.2138L44.9056 50.4383L40.445 44.1547L40.7613 43.9302Z" fill="white"/>
<path d="M79.3522 43.6157C79.3522 43.6157 73.1462 44.2751 74.271 50.7527C80.7874 49.7054 79.3522 43.6157 79.3522 43.6157Z" fill="#FF60E6"/>
<path fill-rule="evenodd" clip-rule="evenodd" d="M79.2384 44.155L74.739 50.4387L74.4236 50.2128L78.923 43.9292L79.2384 44.155Z" fill="white"/>
<path d="M83.5801 57.5402C83.5801 57.5402 78.6928 53.6227 74.9692 59.0142C80.2831 62.8542 83.5801 57.5402 83.5801 57.5402Z" fill="#FF60E6"/>
<path fill-rule="evenodd" clip-rule="evenodd" d="M83.1081 57.8093L75.5057 59.0893L75.4413 58.7068L83.0437 57.4268L83.1081 57.8093Z" fill="white"/>
<path d="M36.065 57.5402C36.065 57.5402 40.9522 53.6227 44.6759 59.0142C39.4007 62.8542 36.065 57.5402 36.065 57.5402Z" fill="#FF60E6"/>
<path fill-rule="evenodd" clip-rule="evenodd" d="M36.6013 57.4268L44.2425 58.7068L44.1784 59.0893L36.5372 57.8093L36.6013 57.4268Z" fill="white"/>
</g>
<defs>
<clipPath id="clip0_64_139">
<rect width="64" height="55.4667" fill="white" transform="translate(28 32)"/>
</clipPath>
</defs>
</svg>
