<svg width="120" height="120" viewBox="0 0 120 120" fill="none" xmlns="http://www.w3.org/2000/svg">
<rect width="120" height="120" rx="60" fill="#FFADF2"/>
<g clip-path="url(#clip0_64_146)">
<path d="M60.8752 91.2717C67.7054 90.8694 72.9163 85.0062 72.514 78.176C72.1116 71.3458 66.2485 66.1349 59.4183 66.5372C52.5881 66.9395 47.3772 72.8026 47.7795 79.6329C48.1818 86.4631 54.0449 91.674 60.8752 91.2717Z" fill="white"/>
<path d="M56.971 76.4269C56.969 77.0084 56.4952 77.4778 55.9137 77.4758C55.3322 77.4739 54.8629 77.0007 54.8648 76.4185C54.8668 75.837 55.3406 75.3677 55.9221 75.3696C56.5036 75.3722 56.9736 75.8455 56.971 76.4269Z" fill="#C622AC"/>
<path d="M65.7238 76.4606C65.7212 77.0421 65.248 77.5115 64.6665 77.5095C64.085 77.5076 63.6157 77.0337 63.6176 76.4522C63.6202 75.8707 64.0935 75.4014 64.675 75.4033C65.2565 75.4059 65.7258 75.8791 65.7238 76.4606Z" fill="#C622AC"/>
<path d="M53.9851 46.9633C58.6332 51.9841 58.3317 59.8223 53.3109 64.4703C48.2901 69.1184 40.452 68.8163 35.8039 63.7961C31.1559 58.7753 31.4573 50.9372 36.4781 46.2892C41.4989 41.6411 49.3371 41.9426 53.9851 46.9633Z" fill="#C622AC"/>
<path d="M40.8993 55.7379C41.2941 56.1645 41.2688 56.8309 40.8416 57.2257C40.415 57.6205 39.7486 57.5952 39.3538 57.1687C38.9591 56.7421 38.9843 56.0757 39.4109 55.6809C39.8381 55.2855 40.5038 55.3114 40.8993 55.7379Z" fill="white"/>
<path d="M47.3216 49.7914C47.7164 50.218 47.6911 50.8844 47.2639 51.2792C46.8373 51.674 46.1709 51.6487 45.7761 51.2221C45.3813 50.7956 45.4066 50.1291 45.8332 49.7344C46.2604 49.3396 46.9268 49.3648 47.3216 49.7914Z" fill="white"/>
<path fill-rule="evenodd" clip-rule="evenodd" d="M50.3637 54.0479C50.7568 53.9372 51.1653 54.1662 51.276 54.5593C51.849 56.594 51.2632 58.7856 49.7457 60.2472L49.7456 60.2472C48.1707 61.764 45.8529 62.2446 43.7909 61.4897C43.4074 61.3492 43.2103 60.9244 43.3507 60.5409C43.4911 60.1573 43.9159 59.9602 44.2995 60.1006C45.8354 60.663 47.5562 60.3021 48.7195 59.1818C49.8404 58.1022 50.2789 56.4756 49.8522 54.9603C49.7415 54.5671 49.9705 54.1586 50.3637 54.0479Z" fill="white"/>
<path d="M66.5361 47.0119C61.8492 51.9964 62.0903 59.8365 67.0748 64.5234C72.0593 69.2103 79.8994 68.9692 84.5863 63.9847C89.2732 59.0002 89.0321 51.1601 84.0476 46.4732C79.0631 41.7863 71.223 42.0274 66.5361 47.0119Z" fill="#FF60E6"/>
<path d="M79.5538 55.8879C79.1551 56.3119 79.1759 56.9776 79.5999 57.3763C80.0232 57.775 80.6896 57.7543 81.0883 57.3303C81.4863 56.907 81.4662 56.2406 81.0422 55.8419C80.6183 55.4439 79.9519 55.4639 79.5538 55.8879Z" fill="white"/>
<path d="M73.1769 49.8918C72.7782 50.3151 72.799 50.9815 73.2223 51.3802C73.6462 51.7789 74.3126 51.7582 74.7107 51.3342C75.1087 50.9109 75.0886 50.2445 74.6646 49.8458C74.242 49.4478 73.5756 49.4679 73.1769 49.8918Z" fill="white"/>
<path d="M60.2006 33.8968C59.7715 32.6139 59.2587 31.3375 58.4425 30.2588C57.6264 29.1801 56.4712 28.3056 55.1396 28.0644C52.9057 27.6599 50.6096 29.2112 49.7403 31.309C48.8709 33.4061 49.2482 35.8675 50.2958 37.8817C51.3434 39.8958 52.9965 41.5275 54.728 42.9958C56.4595 44.4642 58.3025 45.8112 59.8837 47.4403C62.9499 45.5487 65.8801 42.7638 68.3169 40.1098C69.7022 38.6013 71.0039 36.9138 71.481 34.9217C71.9582 32.9296 71.4156 30.5719 69.7204 29.4219C68.1016 28.3237 65.8522 28.5934 64.1563 29.569C62.4605 30.5447 61.4245 32.3708 60.2006 33.8968Z" fill="white"/>
<path d="M86.1694 81.4934C87.3803 82.097 88.6451 82.637 89.9851 82.8224C91.325 83.0084 92.7603 82.8094 93.8727 82.0386C95.7384 80.7453 96.2648 78.0246 95.3968 75.9268C94.5281 73.829 92.5217 72.3555 90.3565 71.6722C88.1913 70.989 85.8693 71.0039 83.6062 71.1899C81.3437 71.376 79.0878 71.7267 76.8175 71.6923C75.9865 75.1982 75.884 79.2394 76.0377 82.8386C76.1252 84.8851 76.3975 86.9985 77.4684 88.7442C78.5393 90.49 80.5904 91.7736 82.602 91.3885C84.5235 91.0203 85.9231 89.2389 86.4326 87.3498C86.9415 85.4614 86.3827 83.4376 86.1694 81.4934Z" fill="#C622AC"/>
<path d="M33.769 81.2902C32.5535 81.8846 31.2849 82.4143 29.943 82.5899C28.6011 82.7656 27.1678 82.5556 26.0618 81.7764C24.2059 80.4688 23.7009 77.7435 24.5851 75.6529C25.47 73.5622 27.488 72.1043 29.6584 71.4379C31.8288 70.7715 34.1509 70.8045 36.412 71.0081C38.6731 71.2116 40.9265 71.5799 43.1967 71.563C44.0006 75.0753 44.0712 79.1166 43.8904 82.7151C43.7873 84.761 43.4982 86.8724 42.4136 88.6097C41.3291 90.347 39.2682 91.6151 37.2593 91.2138C35.3404 90.8307 33.9551 89.0382 33.4605 87.1459C32.9658 85.2524 33.5402 83.233 33.769 81.2902Z" fill="#FF60E6"/>
<path fill-rule="evenodd" clip-rule="evenodd" d="M77.1721 60.9889C77.2828 61.3821 77.0538 61.7906 76.6606 61.9013C74.626 62.4742 72.4344 61.8884 70.9728 60.3709L70.9728 60.3709C69.456 58.796 68.9754 56.4781 69.7303 54.4162C69.8708 54.0326 70.2955 53.8355 70.6791 53.976C71.0627 54.1164 71.2598 54.5412 71.1193 54.9247C70.557 56.4607 70.9178 58.1815 72.0382 59.3448C73.1178 60.4657 74.7444 60.9041 76.2597 60.4775C76.6529 60.3667 77.0614 60.5957 77.1721 60.9889Z" fill="white"/>
<path fill-rule="evenodd" clip-rule="evenodd" d="M64.9702 81.6303C65.3265 81.83 65.4535 82.2808 65.2537 82.6371C64.2202 84.4809 62.2562 85.6164 60.1497 85.5768L60.1496 85.5768C57.9635 85.5357 55.9847 84.2366 55.0605 82.2448C54.8886 81.8742 55.0496 81.4345 55.4201 81.2626C55.7906 81.0907 56.2304 81.2517 56.4023 81.6222C57.0907 83.1059 58.5626 84.0675 60.1775 84.0979C61.7334 84.1271 63.1937 83.287 63.9634 81.9138C64.1631 81.5575 64.6139 81.4305 64.9702 81.6303Z" fill="#C622AC"/>
</g>
<defs>
<clipPath id="clip0_64_146">
<rect width="71.9571" height="64" fill="white" transform="translate(24 28)"/>
</clipPath>
</defs>
</svg>
