<svg width="120" height="120" viewBox="0 0 120 120" fill="none" xmlns="http://www.w3.org/2000/svg">
<rect width="120" height="120" rx="60" fill="#FFADF2"/>
<g clip-path="url(#clip0_75_26)">
<path d="M34.9909 36.9921C46.2897 29.0118 54.981 39.5205 54.981 39.5205L79.3959 68.9921C79.3959 68.9921 80.9366 71.56 78.7243 73.5353C76.4724 75.5501 74.9317 74.1279 74.9317 74.1279C74.9317 74.1279 76.3539 77.2094 73.865 78.6711C71.3761 80.1328 69.6378 78.2365 69.6378 78.2365C69.6378 78.2365 71.0601 81.6341 68.6107 83.2143C66.1613 84.7946 63.6724 82.1476 63.6724 82.1476C63.6724 82.1476 64.6601 84.9921 62.3687 85.9402C60.0773 86.8884 58.3786 85.5452 58.3786 85.5452C54.665 82.9378 37.1242 65.239 37.1242 65.239C27.1687 55.402 23.8107 44.9328 34.9909 36.9921Z" fill="#FF60E6"/>
<path d="M49.0156 52.834L66.3983 38.1377C66.3983 38.1377 77.7761 27.7476 88.7193 39.955C97.0946 49.3575 85.3218 62.2365 78.1317 67.8068L65.8452 52.676C65.8452 52.676 56.4033 60.4192 51.544 56.9031C51.0699 56.5476 48.5415 53.2686 49.0156 52.834Z" fill="#C622AC"/>
<path fill-rule="evenodd" clip-rule="evenodd" d="M67.6473 65.6608C67.7853 65.5433 67.9923 65.5599 68.1098 65.6979L75.1419 73.9547C75.2594 74.0926 75.2428 74.2997 75.1049 74.4172C74.9669 74.5347 74.7598 74.5181 74.6423 74.3802L67.6102 66.1234C67.4927 65.9854 67.5093 65.7783 67.6473 65.6608Z" fill="#C622AC"/>
<path fill-rule="evenodd" clip-rule="evenodd" d="M62.3895 70.0491C62.5258 69.9297 62.7331 69.9434 62.8525 70.0797L69.8451 78.0599C69.9645 78.1962 69.9508 78.4035 69.8145 78.5229C69.6782 78.6424 69.4709 78.6287 69.3515 78.4924L62.3589 70.5121C62.2395 70.3758 62.2532 70.1685 62.3895 70.0491Z" fill="#C622AC"/>
<path fill-rule="evenodd" clip-rule="evenodd" d="M56.6603 74.2373C56.7962 74.1175 57.0035 74.1304 57.1234 74.2663L63.9185 81.9701C64.0383 82.106 64.0253 82.3133 63.8894 82.4332C63.7535 82.553 63.5462 82.54 63.4263 82.4041L56.6312 74.7004C56.5114 74.5645 56.5244 74.3572 56.6603 74.2373Z" fill="#C622AC"/>
<path fill-rule="evenodd" clip-rule="evenodd" d="M66.0815 52.4132C65.9366 52.3046 65.731 52.334 65.6223 52.4789L66.0815 52.4132ZM65.8847 52.6758C65.6879 52.9383 65.688 52.9384 65.6882 52.9385L65.6888 52.939L65.6906 52.9403L65.6971 52.9452L65.7214 52.963C65.7426 52.9785 65.7736 53.0009 65.814 53.0296C65.8949 53.087 66.0137 53.1696 66.1674 53.272C66.4746 53.4766 66.9214 53.7602 67.4833 54.0791C68.6063 54.7162 70.1941 55.4966 72.0502 56.066C75.7605 57.2042 80.5893 57.5098 84.8942 54.078C85.0359 53.9651 85.0592 53.7586 84.9463 53.6169C84.8333 53.4752 84.6269 53.4519 84.4852 53.5649C80.4148 56.8097 75.8411 56.5425 72.2427 55.4386C70.4445 54.887 68.9014 54.1292 67.8072 53.5083C67.2605 53.1981 66.827 52.9229 66.5311 52.7258C66.3832 52.6273 66.2698 52.5483 66.1938 52.4944C66.1558 52.4675 66.1273 52.4468 66.1084 52.433L66.0876 52.4177L66.0827 52.4141L66.0815 52.4132M65.8847 52.6758L65.6879 52.9383C65.5429 52.8296 65.5135 52.6239 65.6223 52.4789" fill="#FF60E6"/>
</g>
<defs>
<clipPath id="clip0_75_26">
<rect width="64" height="52.5432" fill="white" transform="translate(28 34)"/>
</clipPath>
</defs>
</svg>
