<svg width="40" height="40" viewBox="0 0 40 40" fill="none" xmlns="http://www.w3.org/2000/svg">
<g clip-path="url(#clip0_54_37)">
<path d="M20 40C31.0457 40 40 31.0457 40 20C40 8.9543 31.0457 0 20 0C8.9543 0 0 8.9543 0 20C0 31.0457 8.9543 40 20 40Z" fill="white"/>
<path d="M20 0C8.95473 0 0 8.95473 0 20C0 28.4774 5.26749 35.7202 12.7078 38.6337C12.5267 37.0535 12.3786 34.6173 12.7737 32.8889C13.1358 31.3251 15.1111 22.9465 15.1111 22.9465C15.1111 22.9465 14.5185 21.7449 14.5185 19.9835C14.5185 17.2016 16.1317 15.1276 18.1399 15.1276C19.8519 15.1276 20.6749 16.4115 20.6749 17.9424C20.6749 19.6543 19.5885 22.2222 19.0123 24.6091C18.535 26.6008 20.0165 28.2305 21.9753 28.2305C25.5309 28.2305 28.2634 24.4774 28.2634 19.0782C28.2634 14.2881 24.823 10.9465 19.9012 10.9465C14.2058 10.9465 10.8642 15.2099 10.8642 19.6214C10.8642 21.3333 11.5226 23.177 12.3457 24.1811C12.5103 24.3786 12.5267 24.5597 12.4774 24.7572C12.3292 25.3827 11.9835 26.749 11.9177 27.0288C11.8354 27.3909 11.6214 27.4732 11.2428 27.2922C8.74074 26.1235 7.17695 22.4856 7.17695 19.5391C7.17695 13.2346 11.7531 7.44033 20.3951 7.44033C27.3251 7.44033 32.7243 12.3786 32.7243 18.9959C32.7243 25.893 28.3786 31.4403 22.3539 31.4403C20.3292 31.4403 18.4198 30.3868 17.7778 29.1358C17.7778 29.1358 16.7737 32.9547 16.5267 33.893C16.0823 35.6379 14.8642 37.8107 14.0412 39.144C15.9177 39.7202 17.893 40.0329 19.9671 40.0329C31.0123 40.0329 39.9671 31.0782 39.9671 20.0329C40 8.95473 31.0453 0 20 0Z" fill="#E60019"/>
</g>
<defs>
<clipPath id="clip0_54_37">
<rect width="40" height="40" fill="white"/>
</clipPath>
</defs>
</svg>
