<svg width="241" height="508" viewBox="0 0 241 508" fill="none" xmlns="http://www.w3.org/2000/svg">
<path d="M37.5722 370.679C25.6722 381.979 16.3722 394.979 9.67219 409.979C2.97219 424.879 -1.82781 440.179 0.672194 456.579C5.67219 489.579 37.8722 509.979 70.0722 507.079C103.572 503.979 131.672 481.379 151.072 455.179C169.272 430.579 179.972 400.379 180.772 369.779C181.772 335.779 169.372 305.179 150.272 277.579C140.072 262.779 128.472 248.779 119.372 233.279C111.372 219.679 105.672 204.779 102.572 189.179C96.6722 158.779 102.072 126.679 116.772 99.5794C131.372 72.6794 154.472 51.2794 180.972 36.2794C231.172 7.77937 297.072 1.07937 347.872 31.7794C354.372 35.6794 360.472 39.9794 366.272 44.8794C371.872 49.6794 380.172 41.5794 374.472 36.6794C329.772 -2.52062 265.972 -8.42063 210.972 10.0794C154.272 29.1794 104.172 73.9794 91.6722 134.279C85.4722 164.279 88.9723 195.379 101.272 223.379C115.372 255.479 142.072 280.079 157.272 311.679C184.372 367.979 164.372 436.379 117.472 475.479C92.2722 496.479 52.6722 507.179 25.0722 484.179C11.6722 473.079 6.47224 456.679 6.47224 439.579C6.57224 422.379 13.7723 406.379 22.3723 391.779C26.7723 384.379 32.1722 377.579 37.9722 371.179C38.2722 370.779 37.8722 370.379 37.5722 370.679Z" fill="#FFADF2"/>
</svg>
