<svg width="249" height="465" viewBox="0 0 249 465" fill="none" xmlns="http://www.w3.org/2000/svg">
<path d="M0.0480119 368.998C17.448 418.998 66.748 457.698 119.048 464.198C175.948 471.198 228.148 419.998 221.548 362.998C214.448 300.998 157.148 266.298 127.548 215.998C113.348 191.798 106.748 164.398 114.848 136.898C122.948 109.398 142.548 86.2978 165.848 70.0978C192.548 51.5978 223.848 42.0978 255.748 37.0978C286.348 32.2978 320.048 34.3978 348.348 20.1978C354.548 17.0978 360.248 11.3978 365.348 6.69777C369.248 2.99777 363.648 -2.20223 359.648 0.99777C353.748 5.59777 346.948 7.99777 340.148 10.7978C333.448 13.5978 326.548 15.5978 319.548 17.0978C304.248 20.3978 288.348 20.8978 272.848 22.6978C240.648 26.3978 208.648 32.8978 179.648 47.7978C130.748 72.7978 89.348 124.698 101.148 182.398C106.548 208.698 121.948 231.698 138.548 252.298C156.648 274.598 178.348 294.098 193.148 318.898C208.548 344.698 216.448 375.698 204.348 404.398C194.148 428.498 172.348 447.598 147.148 454.498C120.848 461.798 92.4479 454.198 68.8479 441.898C44.6479 429.198 23.948 409.798 10.048 386.198C6.74801 380.498 3.74801 374.598 1.04801 368.598C0.948012 367.698 -0.251988 368.198 0.0480119 368.998Z" fill="#FFADF2"/>
</svg>
