<svg width="40" height="40" viewBox="0 0 40 40" fill="none" xmlns="http://www.w3.org/2000/svg">
<rect width="40" height="40" rx="20" fill="white"/>
<path d="M14.9341 30.5C24.4545 30.5 29.6618 22.6124 29.6618 15.7722C29.6618 15.5482 29.6618 15.3252 29.6467 15.1032C30.6597 14.3704 31.5342 13.4631 32.2291 12.4238C31.2845 12.8426 30.2823 13.1171 29.2561 13.2382C30.3368 12.5914 31.1455 11.5739 31.5318 10.3752C30.5158 10.9782 29.4042 11.4031 28.245 11.6316C27.4645 10.8018 26.4324 10.2523 25.3082 10.0681C24.184 9.884 23.0304 10.0755 22.026 10.613C21.0216 11.1506 20.2224 12.0041 19.752 13.0417C19.2816 14.0792 19.1663 15.2428 19.4238 16.3525C17.3659 16.2493 15.3527 15.7144 13.5149 14.7827C11.677 13.851 10.0556 12.5433 8.75595 10.9444C8.09403 12.0839 7.8913 13.4328 8.18903 14.7166C8.48676 16.0003 9.26257 17.1223 10.3585 17.8541C9.53472 17.83 8.72888 17.6078 8.00917 17.2063V17.2718C8.00949 18.4669 8.42319 19.6251 9.18008 20.5499C9.93698 21.4748 10.9905 22.1093 12.1619 22.3459C11.3998 22.5538 10.6003 22.5842 9.82466 22.4347C10.1556 23.4632 10.7995 24.3625 11.6666 25.007C12.5336 25.6515 13.5804 26.009 14.6606 26.0294C13.5874 26.873 12.3584 27.4967 11.0439 27.8648C9.72941 28.233 8.35524 28.3383 7 28.1749C9.36716 29.6939 12.1214 30.4997 14.9341 30.496" fill="#1DA1F2"/>
</svg>
